<svg width="593" height="593" viewBox="0 0 593 593" fill="none" xmlns="http://www.w3.org/2000/svg">
<path d="M593 296.5C593 460.252 460.252 593 296.5 593C132.748 593 0 460.252 0 296.5C0 132.748 132.748 0 296.5 0C460.252 0 593 132.748 593 296.5Z" fill="#E064CC" fill-opacity="0.05"/>
<path d="M554.976 296.5C554.976 439.252 439.252 554.976 296.5 554.976C153.748 554.976 38.0244 439.252 38.0244 296.5C38.0244 153.748 153.748 38.0244 296.5 38.0244C439.252 38.0244 554.976 153.748 554.976 296.5Z" fill="#E064CC" fill-opacity="0.05"/>
<path d="M506.087 296.5C506.087 413.752 411.036 508.803 293.784 508.803C176.532 508.803 81.4809 413.752 81.4809 296.5C81.4809 179.248 176.532 84.1969 293.784 84.1969C411.036 84.1969 506.087 179.248 506.087 296.5Z" fill="#E064CC" fill-opacity="0.05"/>
<path d="M174.731 107.736C174.731 105.736 176.353 104.115 178.353 104.115H427.322C429.322 104.115 430.944 105.736 430.944 107.736V455.388C430.944 457.388 429.322 459.009 427.322 459.009H178.353C176.353 459.009 174.731 457.388 174.731 455.388V107.736Z" fill="white"/>
<path d="M200 195.811C200 194.811 200.811 194 201.811 194H404.189C405.189 194 406 194.811 406 195.811V228.189C406 229.189 405.189 230 404.189 230H201.811C200.811 230 200 229.189 200 228.189V195.811Z" fill="#F3F3F3"/>
<path d="M200 246.811C200 245.811 200.811 245 201.811 245H404.189C405.189 245 406 245.811 406 246.811V279.189C406 280.189 405.189 281 404.189 281H201.811C200.811 281 200 280.189 200 279.189V246.811Z" fill="#F3F3F3"/>
<path d="M200 144.811C200 143.811 200.811 143 201.811 143H404.189C405.189 143 406 143.811 406 144.811V177.189C406 178.189 405.189 179 404.189 179H201.811C200.811 179 200 178.189 200 177.189V144.811Z" fill="#F3F3F3"/>
<path d="M200 348.811C200 347.811 200.811 347 201.811 347H404.189C405.189 347 406 347.811 406 348.811V381.189C406 382.189 405.189 383 404.189 383H201.811C200.811 383 200 382.189 200 381.189V348.811Z" fill="#F3F3F3"/>
<path d="M200 399.811C200 398.811 200.811 398 201.811 398H404.189C405.189 398 406 398.811 406 399.811V432.189C406 433.189 405.189 434 404.189 434H201.811C200.811 434 200 433.189 200 432.189V399.811Z" fill="#F3F3F3"/>
<path d="M200 297.811C200 296.811 200.811 296 201.811 296H404.189C405.189 296 406 296.811 406 297.811V330.189C406 331.189 405.189 332 404.189 332H201.811C200.811 332 200 331.189 200 330.189V297.811Z" fill="#F3F3F3"/>
<path d="M197 242.16C197 241.16 197.811 240.35 198.811 240.35H247.699C248.699 240.35 249.51 241.16 249.51 242.16V253.93C249.51 254.93 248.699 255.74 247.699 255.74H198.811C197.811 255.74 197 254.93 197 253.93V242.16Z" fill="#FCEFFA"/>
<path d="M220 309.68C220 308.2 221.2 307 222.68 307H449.107C450.587 307 451.786 308.2 451.786 309.68V373.32C451.786 374.8 450.587 376 449.107 376H222.68C221.2 376 220 374.8 220 373.32V309.68Z" fill="white"/>
<path d="M230.049 323.078C230.049 321.598 231.248 320.398 232.728 320.398H272.252C273.732 320.398 274.932 321.598 274.932 323.078V360.592C274.932 362.072 273.732 363.272 272.252 363.272H232.728C231.248 363.272 230.049 362.072 230.049 360.592V323.078Z" fill="#66C085"/>
<path d="M283.641 321.738C283.641 320.998 284.241 320.398 284.981 320.398H435.039C435.779 320.398 436.379 320.998 436.379 321.738V330.447C436.379 331.187 435.779 331.786 435.039 331.786H284.981C284.241 331.786 283.641 331.187 283.641 330.447V321.738Z" fill="#66C085" fill-opacity="0.11"/>
<path d="M283.641 340.495C283.641 339.755 284.241 339.155 284.981 339.155H321.155C321.895 339.155 322.495 339.755 322.495 340.495V349.204C322.495 349.944 321.895 350.544 321.155 350.544H284.981C284.241 350.544 283.641 349.944 283.641 349.204V340.495Z" fill="#66C085" fill-opacity="0.11"/>
<path d="M81.4809 241.727C81.4809 239.727 83.1022 238.105 85.1023 238.105H391.108C393.108 238.105 394.73 239.727 394.73 241.727V327.734C394.73 329.734 393.108 331.356 391.108 331.356H85.1023C83.1022 331.356 81.4809 329.734 81.4809 327.734V241.727Z" fill="white"/>
<path d="M95.061 259.834C95.061 257.834 96.6824 256.212 98.6824 256.212H152.098C154.098 256.212 155.719 257.834 155.719 259.834V310.533C155.719 312.533 154.098 314.154 152.098 314.154H98.6824C96.6824 314.154 95.061 312.533 95.061 310.533V259.834Z" fill="#FD377E"/>
<path d="M167.489 258.023C167.489 257.023 168.299 256.212 169.299 256.212H372.096C373.096 256.212 373.907 257.023 373.907 258.023V269.792C373.907 270.792 373.096 271.603 372.096 271.603H169.299C168.299 271.603 167.489 270.792 167.489 269.792V258.023Z" fill="#FCEFFA"/>
<path d="M167.489 283.372C167.489 282.372 168.299 281.562 169.299 281.562H218.188C219.188 281.562 219.998 282.372 219.998 283.372V295.142C219.998 296.142 219.188 296.953 218.188 296.953H169.299C168.299 296.953 167.489 296.142 167.489 295.142V283.372Z" fill="#FCEFFA"/>
<path d="M388 119C388 120.657 386.657 122 385 122C383.343 122 382 120.657 382 119C382 117.343 383.343 116 385 116C386.657 116 388 117.343 388 119Z" fill="#FD377E"/>
<path d="M403 119C403 120.657 401.657 122 400 122C398.343 122 397 120.657 397 119C397 117.343 398.343 116 400 116C401.657 116 403 117.343 403 119Z" fill="#66C085"/>
<path d="M418 119C418 120.657 416.657 122 415 122C413.343 122 412 120.657 412 119C412 117.343 413.343 116 415 116C416.657 116 418 117.343 418 119Z" fill="black"/>
</svg>
